<?xml version="1.0" encoding="UTF-8"?>
<!DOCTYPE svg PUBLIC "-//W3C//DTD SVG 1.1//EN" "http://www.w3.org/Graphics/SVG/1.1/DTD/svg11.dtd">
<!-- Creator: CorelDRAW -->
<svg xmlns="http://www.w3.org/2000/svg" xml:space="preserve" width="1.48897in" height="2.42408in" version="1.1" style="shape-rendering:geometricPrecision; text-rendering:geometricPrecision; image-rendering:optimizeQuality; fill-rule:evenodd; clip-rule:evenodd"
viewBox="0 0 1349.77 2197.46"
 xmlns:xlink="http://www.w3.org/1999/xlink"
 xmlns:xodm="http://www.corel.com/coreldraw/odm/2003">
 <defs>
  <style type="text/css">
   <![CDATA[
    .fil0 {fill:#FEFEFE}
   ]]>
  </style>
 </defs>
 <g id="Layer_x0020_1">
  <metadata id="CorelCorpID_0Corel-Layer"/>
  <path class="fil0" d="M698.84 0c0,0 52.99,199.72 -480.96,721.44 -533.95,521.72 81.52,1018.98 81.52,1018.98 0,0 -224.18,-472.81 154.89,-876.33 379.06,-403.52 322.8,-659.78 244.56,-864.1z"/>
  <path class="fil0" d="M789.31 114.65c0,0 216.85,471.14 -167.11,839.65 -383.96,368.51 -350.53,860.03 -28.53,1116.81 0,0 -220.1,-464.66 211.95,-868.18 432.05,-403.52 171.19,-966 -16.31,-1088.28z"/>
  <path class="fil0" d="M1090.93 465.18c0,0 191.57,427.97 -65.22,782.58 -256.79,354.61 -468.74,554.33 -334.23,949.7 0,0 24.45,-256.78 370.91,-566.56 346.46,-309.77 407.6,-766.28 28.53,-1165.72z"/>
 </g>
</svg>
